<svg
    version="1.0"
    xmlns="http://www.w3.org/2000/svg"
    xmlns:xlink="http://www.w3.org/1999/xlink"
    width="512"
    height="512"
    viewBox="0 0 512 512"
  >
    <svg id="global-svg-defs" version="1.0" xmlns="http://www.w3.org/2000/svg" width="0" height="0" viewBox="0 0 340.000000 250.000000" preserveAspectRatio="xMidYMid meet" color-interpolation-filters="sRGB" class="el-tooltip" style="margin: auto;" xmlns:xlink="http://www.w3.org/1999/xlink">
    <defs>
      <pattern id="watermark" patternUnits="userSpaceOnUse" width="100%" height="100%">
        <image xlink:href="https://www.logosc.cn/img/watermark/LOGOSC-watermark.png" x="0" y="0" width="100%" height="100%">
        </image>
      </pattern>
                    <linearGradient id="92" x1="0%" y1="0%" x2="100%" y2="0%">
          <stop offset="0%" stop-color="#fa71cd"></stop>
          <stop offset="100%" stop-color="#9b59b6"></stop>
        </linearGradient>
              <linearGradient id="93" x1="0%" y1="0%" x2="100%" y2="0%">
          <stop offset="0%" stop-color="#f9d423"></stop>
          <stop offset="100%" stop-color="#f83600"></stop>
        </linearGradient>
              <linearGradient id="94" x1="0%" y1="0%" x2="100%" y2="0%">
          <stop offset="0%" stop-color="#0064d2"></stop>
          <stop offset="100%" stop-color="#1cb0f6"></stop>
        </linearGradient>
              <linearGradient id="95" x1="0%" y1="0%" x2="100%" y2="0%">
          <stop offset="0%" stop-color="#f00978"></stop>
          <stop offset="100%" stop-color="#3f51b1"></stop>
        </linearGradient>
              <linearGradient id="96" x1="0%" y1="0%" x2="100%" y2="0%">
          <stop offset="0%" stop-color="#7873f5"></stop>
          <stop offset="100%" stop-color="#ec77ab"></stop>
        </linearGradient>
              <linearGradient id="97" x1="0%" y1="0%" x2="100%" y2="0%">
          <stop offset="0%" stop-color="#f9d423"></stop>
          <stop offset="100%" stop-color="#e14fad"></stop>
        </linearGradient>
              <linearGradient id="98" x1="0%" y1="0%" x2="100%" y2="0%">
          <stop offset="0%" stop-color="#009efd"></stop>
          <stop offset="100%" stop-color="#2af598"></stop>
        </linearGradient>
              <linearGradient id="99" x1="0%" y1="0%" x2="100%" y2="0%">
          <stop offset="0%" stop-color="#ffcc00"></stop>
          <stop offset="100%" stop-color="#00b140"></stop>
        </linearGradient>
              <linearGradient id="100" x1="0%" y1="0%" x2="100%" y2="0%">
          <stop offset="0%" stop-color="#d51007"></stop>
          <stop offset="100%" stop-color="#ff8177"></stop>
        </linearGradient>
              <linearGradient id="102" x1="0%" y1="0%" x2="100%" y2="0%">
          <stop offset="0%" stop-color="#a2b6df"></stop>
          <stop offset="100%" stop-color="#0c3483"></stop>
        </linearGradient>
              <linearGradient id="103" x1="0%" y1="0%" x2="100%" y2="0%">
          <stop offset="0%" stop-color="#7ac5d8"></stop>
          <stop offset="100%" stop-color="#eea2a2"></stop>
        </linearGradient>
              <linearGradient id="104" x1="0%" y1="0%" x2="100%" y2="0%">
          <stop offset="0%" stop-color="#00ecbc"></stop>
          <stop offset="100%" stop-color="#007adf"></stop>
        </linearGradient>
              <linearGradient id="105" x1="0%" y1="0%" x2="100%" y2="0%">
          <stop offset="0%" stop-color="#b88746"></stop>
          <stop offset="100%" stop-color="#fdf5a6"></stop>
        </linearGradient>
              <linearGradient id="107" x1="0%" y1="0%" x2="100%" y2="0%">
          <stop offset="0%" stop-color="#ffbf00"></stop>
          <stop offset="100%" stop-color="#26b5f8"></stop>
        </linearGradient>
          </defs>
  </svg>
    <rect
      x="0"
      y="0"
      width="100%"
      height="100%"
      fill="transparent"
      fill-opacity="1"
    ></rect>
    <svg data-v-0dd9719b="" version="1.0" xmlns="http://www.w3.org/2000/svg" xmlns:xlink="http://www.w3.org/1999/xlink" width="100%" height="100%" viewBox="0 -3.8888774156475847e-7 100 100" preserveAspectRatio="xMidYMid meet" color-interpolation-filters="sRGB" style="margin: auto;"> <rect data-v-0dd9719b="" x="0" y="0" width="100%" height="100%" fill="#ffffff" fill-opacity="1" class="background" style="display: none;"/> <rect data-v-0dd9719b="" x="0" y="0" width="100%" height="100%" fill="url(#watermark)" fill-opacity="1" class="watermarklayer" style="display: none;"/> <g data-v-0dd9719b="" fill="#333" class="iconsvg-imagesvg"><rect fill="#333" fill-opacity="0" stroke-width="2" x="0" y="0" width="100" height="100" class="image-rect"/> <svg viewBox="0 0 60 60.56018168054504" x="0" y="0" width="100" height="100" class="image-svg-svg bn" style="overflow: visible;"><g hollow-target="iconBnFill" mask="url(#ce4fc734-9593-4276-b43a-fb1dca250ea8)"><g><svg xmlns="http://www.w3.org/2000/svg" xmlns:xlink="http://www.w3.org/1999/xlink" version="1.1" x="0" y="0" viewBox="0.29473 -0.0015 63.4099 64.00201" enable-background="new 0 0 64 64" xml:space="preserve" style="overflow: visible;" width="60" height="60.56018168054504" filtersec="colorsb8580725306" filter="url(#4_f3OC4rkZTsc9m3dZnZd)"><g transform="scale(1, 1) skewX(0)"><path d="M59.583,10.308c-8.457-2.251-17.348-4.487-26.916-6.703L32.643,3.6L32.62,3.59  c-0.146-0.059-0.384-0.098-0.619-0.097c-0.237-0.001-0.475,0.038-0.619,0.097L31.358,3.6l-0.024,0.005  c-9.57,2.216-18.46,4.452-26.918,6.703c-0.12,0.07-0.252,0.3-0.248,0.543c0,0.055,0.006,0.109,0.018,0.162  c1.551,6.784,2.322,13.7,2.322,20.618c0,6.253-0.642,12.506-1.915,18.662c-0.015,0.069-0.023,0.151-0.023,0.24  c-0.004,0.264,0.083,0.566,0.181,0.723c8.324,2.768,17.111,5.514,26.732,8.229l0.068,0.02l0.055,0.046  c0.096,0.081,0.243,0.131,0.396,0.131c0.151,0,0.298-0.05,0.394-0.131l0.054-0.046l0.07-0.02c9.62-2.716,18.406-5.462,26.73-8.229  c0.098-0.156,0.186-0.459,0.181-0.722c0-0.088-0.008-0.171-0.023-0.242h0.001c-1.277-6.169-1.915-12.438-1.915-18.706  c0-6.9,0.774-13.802,2.321-20.572c0.013-0.053,0.019-0.108,0.019-0.163C59.836,10.608,59.704,10.378,59.583,10.308z"/><path d="M63.183,7.693c-9.535-2.539-19.559-5.06-30.348-7.558c-0.458-0.182-1.213-0.182-1.67,0  C20.376,2.634,10.353,5.155,0.818,7.693c-0.387,0.183-0.606,0.737-0.494,1.23C3.637,23.413,3.789,38.441,0.781,52.98  c-0.101,0.493,0.038,1.159,0.317,1.479c9.408,3.13,19.339,6.235,30.218,9.306c0.374,0.314,0.994,0.314,1.369,0  c10.878-3.07,20.809-6.176,30.217-9.306c0.28-0.319,0.419-0.985,0.317-1.479c-3.009-14.539-2.855-29.568,0.456-44.057  C63.788,8.431,63.568,7.876,63.183,7.693z M60.462,11.161c-1.536,6.722-2.305,13.572-2.305,20.424c0,6.223,0.633,12.446,1.9,18.571  l-0.325,0.067l0.325-0.066c0.025,0.123,0.036,0.248,0.036,0.376c-0.005,0.445-0.12,0.898-0.393,1.223l-0.06,0.068l-0.085,0.028  c-8.344,2.775-17.15,5.53-26.795,8.253c-0.226,0.164-0.496,0.239-0.761,0.24c-0.267-0.001-0.536-0.076-0.761-0.24  c-9.645-2.723-18.452-5.477-26.795-8.253l-0.086-0.028l-0.059-0.067c-0.273-0.324-0.388-0.778-0.393-1.225  c0-0.127,0.011-0.253,0.037-0.376c1.264-6.11,1.9-12.318,1.9-18.526c0-6.868-0.765-13.734-2.305-20.469  c-0.024-0.103-0.035-0.208-0.035-0.311c0.005-0.47,0.216-0.937,0.654-1.156l0.028-0.013l0.029-0.008  c8.466-2.253,17.365-4.492,26.945-6.71C31.415,2.868,31.707,2.83,32,2.829c0.292,0,0.583,0.04,0.837,0.133  c9.58,2.219,18.48,4.458,26.947,6.711l0.028,0.008l0.029,0.013c0.438,0.22,0.649,0.686,0.653,1.156  C60.496,10.953,60.485,11.058,60.462,11.161z"/></g><defs><filter id="4_f3OC4rkZTsc9m3dZnZd"><feColorMatrix type="matrix" values="0 0 0 0 0.19921875  0 0 0 0 0.19921875  0 0 0 0 0.19921875  0 0 0 1 0"/></filter></defs></svg></g> <g filter="url(#colors4580480000)"><svg xmlns="http://www.w3.org/2000/svg" xmlns:xlink="http://www.w3.org/1999/xlink" viewBox="0 0 67.68 68.4" width="45" height="45.42014" x="7.5" y="7.5700208402725195" class="image-svg-letter"><path transform="translate(-2.232 61.56000000000001)" d="M26.06-58.54L69.55-58.54L69.55-53.78Q69.55-49.10 64.87-49.10L64.87-49.10L30.74-49.10Q26.06-49.10 26.06-53.78L26.06-53.78L26.06-58.54ZM55.37-22.90L38.66-22.90L38.66-19.37Q38.66-18.00 40.03-18.00L40.03-18.00L54.00-18.00Q55.37-18.00 55.37-19.37L55.37-19.37L55.37-22.90ZM55.37-36.00L38.66-36.00L38.66-31.18L55.37-31.18L55.37-36.00ZM28.58-13.68L28.58-35.64L27.22-34.99Q22.97-33.05 21.60-37.51L21.60-37.51L20.95-39.46L20.95 2.16Q20.95 6.84 15.91 6.84Q10.87 6.84 10.87 2.16L10.87 2.16L10.87-33.77Q10.01-28.30 10.08-29.59L10.08-29.59Q9.07-25.06 4.97-26.50L4.97-26.50Q0.94-28.01 2.23-32.47L2.23-32.47Q3.24-35.06 4.25-47.09L4.25-47.09L10.87-46.22L10.87-61.56L20.95-61.56L20.95-47.59L25.56-49.54Q27.86-44.21 28.58-42.34L28.58-42.34L28.58-45.00L65.95-45.00L65.95-13.68Q65.95-9.00 61.27-9.00L61.27-9.00L33.26-9.00Q28.58-9.00 28.58-13.68L28.58-13.68ZM24.48-0.43L24.48-5.40L69.91-5.40L69.91-0.43Q69.91 4.25 65.23 4.25L65.23 4.25L29.16 4.25Q24.48 4.25 24.48-0.43L24.48-0.43Z"/></svg></g></g><mask id="ce4fc734-9593-4276-b43a-fb1dca250ea8"><g fill="white"><svg xmlns="http://www.w3.org/2000/svg" xmlns:xlink="http://www.w3.org/1999/xlink" version="1.1" x="0" y="0" viewBox="0.29473 -0.0015 63.4099 64.00201" enable-background="new 0 0 64 64" xml:space="preserve" style="overflow: visible;" width="60" height="60.56018168054504" filtersec="colorsb8580725306"><g transform="scale(1, 1) skewX(0)"><path d="M59.583,10.308c-8.457-2.251-17.348-4.487-26.916-6.703L32.643,3.6L32.62,3.59  c-0.146-0.059-0.384-0.098-0.619-0.097c-0.237-0.001-0.475,0.038-0.619,0.097L31.358,3.6l-0.024,0.005  c-9.57,2.216-18.46,4.452-26.918,6.703c-0.12,0.07-0.252,0.3-0.248,0.543c0,0.055,0.006,0.109,0.018,0.162  c1.551,6.784,2.322,13.7,2.322,20.618c0,6.253-0.642,12.506-1.915,18.662c-0.015,0.069-0.023,0.151-0.023,0.24  c-0.004,0.264,0.083,0.566,0.181,0.723c8.324,2.768,17.111,5.514,26.732,8.229l0.068,0.02l0.055,0.046  c0.096,0.081,0.243,0.131,0.396,0.131c0.151,0,0.298-0.05,0.394-0.131l0.054-0.046l0.07-0.02c9.62-2.716,18.406-5.462,26.73-8.229  c0.098-0.156,0.186-0.459,0.181-0.722c0-0.088-0.008-0.171-0.023-0.242h0.001c-1.277-6.169-1.915-12.438-1.915-18.706  c0-6.9,0.774-13.802,2.321-20.572c0.013-0.053,0.019-0.108,0.019-0.163C59.836,10.608,59.704,10.378,59.583,10.308z"/><path d="M63.183,7.693c-9.535-2.539-19.559-5.06-30.348-7.558c-0.458-0.182-1.213-0.182-1.67,0  C20.376,2.634,10.353,5.155,0.818,7.693c-0.387,0.183-0.606,0.737-0.494,1.23C3.637,23.413,3.789,38.441,0.781,52.98  c-0.101,0.493,0.038,1.159,0.317,1.479c9.408,3.13,19.339,6.235,30.218,9.306c0.374,0.314,0.994,0.314,1.369,0  c10.878-3.07,20.809-6.176,30.217-9.306c0.28-0.319,0.419-0.985,0.317-1.479c-3.009-14.539-2.855-29.568,0.456-44.057  C63.788,8.431,63.568,7.876,63.183,7.693z M60.462,11.161c-1.536,6.722-2.305,13.572-2.305,20.424c0,6.223,0.633,12.446,1.9,18.571  l-0.325,0.067l0.325-0.066c0.025,0.123,0.036,0.248,0.036,0.376c-0.005,0.445-0.12,0.898-0.393,1.223l-0.06,0.068l-0.085,0.028  c-8.344,2.775-17.15,5.53-26.795,8.253c-0.226,0.164-0.496,0.239-0.761,0.24c-0.267-0.001-0.536-0.076-0.761-0.24  c-9.645-2.723-18.452-5.477-26.795-8.253l-0.086-0.028l-0.059-0.067c-0.273-0.324-0.388-0.778-0.393-1.225  c0-0.127,0.011-0.253,0.037-0.376c1.264-6.11,1.9-12.318,1.9-18.526c0-6.868-0.765-13.734-2.305-20.469  c-0.024-0.103-0.035-0.208-0.035-0.311c0.005-0.47,0.216-0.937,0.654-1.156l0.028-0.013l0.029-0.008  c8.466-2.253,17.365-4.492,26.945-6.71C31.415,2.868,31.707,2.83,32,2.829c0.292,0,0.583,0.04,0.837,0.133  c9.58,2.219,18.48,4.458,26.947,6.711l0.028,0.008l0.029,0.013c0.438,0.22,0.649,0.686,0.653,1.156  C60.496,10.953,60.485,11.058,60.462,11.161z"/></g><defs/></svg></g> <g fill="black"><svg xmlns="http://www.w3.org/2000/svg" xmlns:xlink="http://www.w3.org/1999/xlink" viewBox="0 0 67.68 68.4" width="45" height="45.42014" x="7.5" y="7.5700208402725195" class="image-svg-letter"><path transform="translate(-2.232 61.56000000000001)" d="M26.06-58.54L69.55-58.54L69.55-53.78Q69.55-49.10 64.87-49.10L64.87-49.10L30.74-49.10Q26.06-49.10 26.06-53.78L26.06-53.78L26.06-58.54ZM55.37-22.90L38.66-22.90L38.66-19.37Q38.66-18.00 40.03-18.00L40.03-18.00L54.00-18.00Q55.37-18.00 55.37-19.37L55.37-19.37L55.37-22.90ZM55.37-36.00L38.66-36.00L38.66-31.18L55.37-31.18L55.37-36.00ZM28.58-13.68L28.58-35.64L27.22-34.99Q22.97-33.05 21.60-37.51L21.60-37.51L20.95-39.46L20.95 2.16Q20.95 6.84 15.91 6.84Q10.87 6.84 10.87 2.16L10.87 2.16L10.87-33.77Q10.01-28.30 10.08-29.59L10.08-29.59Q9.07-25.06 4.97-26.50L4.97-26.50Q0.94-28.01 2.23-32.47L2.23-32.47Q3.24-35.06 4.25-47.09L4.25-47.09L10.87-46.22L10.87-61.56L20.95-61.56L20.95-47.59L25.56-49.54Q27.86-44.21 28.58-42.34L28.58-42.34L28.58-45.00L65.95-45.00L65.95-13.68Q65.95-9.00 61.27-9.00L61.27-9.00L33.26-9.00Q28.58-9.00 28.58-13.68L28.58-13.68ZM24.48-0.43L24.48-5.40L69.91-5.40L69.91-0.43Q69.91 4.25 65.23 4.25L65.23 4.25L29.16 4.25Q24.48 4.25 24.48-0.43L24.48-0.43Z"/></svg></g></mask></svg> <defs><filter id="colors4580480000"><feColorMatrix type="matrix" values="0 0 0 0 0.19921875  0 0 0 0 0.19921875  0 0 0 0 0.19921875  0 0 0 1 0" class="icon-fecolormatrix"/></filter> <filter id="colorsf7136689700"><feColorMatrix type="matrix" values="0 0 0 0 0.99609375  0 0 0 0 0.99609375  0 0 0 0 0.99609375  0 0 0 1 0" class="icon-fecolormatrix"/></filter> <filter id="colorsb8580725306"><feColorMatrix type="matrix" values="0 0 0 0 0  0 0 0 0 0  0 0 0 0 0  0 0 0 1 0" class="icon-fecolormatrix"/></filter></defs></g><defs v-gra="od"/></svg>
  </svg>